<mxfile host="app.diagrams.net" agent="Mozilla/5.0 (Windows NT 10.0; Win64; x64) AppleWebKit/537.36 (KHTML, like Gecko) Chrome/130.0.0.0 Safari/537.36" version="24.8.4">
  <diagram name="Страница — 1" id="gEkW901KdOJTFDLDuAzW">
    <mxGraphModel grid="1" page="1" gridSize="10" guides="1" tooltips="1" connect="1" arrows="1" fold="1" pageScale="1" pageWidth="827" pageHeight="1169" math="0" shadow="0">
      <root>
        <mxCell id="0" />
        <mxCell id="1" parent="0" />
        <mxCell id="A_Fp0_x9dH_AFZVL10BB-17" value="&lt;div style=&quot;&quot;&gt;&lt;span style=&quot;background-color: initial;&quot;&gt;User&lt;/span&gt;&lt;/div&gt;" style="rounded=0;whiteSpace=wrap;html=1;align=center;" vertex="1" parent="1">
          <mxGeometry x="80" y="180" width="220" height="60" as="geometry" />
        </mxCell>
        <mxCell id="A_Fp0_x9dH_AFZVL10BB-18" value="-----" style="rounded=0;whiteSpace=wrap;html=1;" vertex="1" parent="1">
          <mxGeometry x="300" y="180" width="200" height="60" as="geometry" />
        </mxCell>
        <mxCell id="A_Fp0_x9dH_AFZVL10BB-19" value="Объект пользователя, который имеет атрибуты и ссылки на другие объекты" style="rounded=0;whiteSpace=wrap;html=1;align=center;" vertex="1" parent="1">
          <mxGeometry x="500" y="180" width="250" height="60" as="geometry" />
        </mxCell>
        <mxCell id="A_Fp0_x9dH_AFZVL10BB-21" value="&lt;b&gt;&lt;font style=&quot;font-size: 13px;&quot;&gt;Родительская сущность&lt;/font&gt;&lt;/b&gt;" style="rounded=0;whiteSpace=wrap;html=1;" vertex="1" parent="1">
          <mxGeometry x="80" y="120" width="220" height="60" as="geometry" />
        </mxCell>
        <mxCell id="A_Fp0_x9dH_AFZVL10BB-22" value="&lt;b&gt;&lt;font style=&quot;font-size: 13px;&quot;&gt;Атрибут&lt;/font&gt;&lt;/b&gt;" style="rounded=0;whiteSpace=wrap;html=1;" vertex="1" parent="1">
          <mxGeometry x="300" y="120" width="200" height="60" as="geometry" />
        </mxCell>
        <mxCell id="A_Fp0_x9dH_AFZVL10BB-23" value="&lt;b&gt;&lt;font style=&quot;font-size: 13px;&quot;&gt;Описание&lt;/font&gt;&lt;/b&gt;" style="rounded=0;whiteSpace=wrap;html=1;" vertex="1" parent="1">
          <mxGeometry x="500" y="120" width="250" height="60" as="geometry" />
        </mxCell>
        <mxCell id="A_Fp0_x9dH_AFZVL10BB-24" value="" style="rounded=0;whiteSpace=wrap;html=1;" vertex="1" parent="1">
          <mxGeometry x="80" y="240" width="220" height="60" as="geometry" />
        </mxCell>
        <mxCell id="A_Fp0_x9dH_AFZVL10BB-25" value="UserID" style="rounded=0;whiteSpace=wrap;html=1;" vertex="1" parent="1">
          <mxGeometry x="300" y="240" width="200" height="60" as="geometry" />
        </mxCell>
        <mxCell id="A_Fp0_x9dH_AFZVL10BB-26" value="Уникальный идентификатор пользователя" style="rounded=0;whiteSpace=wrap;html=1;align=center;" vertex="1" parent="1">
          <mxGeometry x="500" y="240" width="250" height="60" as="geometry" />
        </mxCell>
        <mxCell id="A_Fp0_x9dH_AFZVL10BB-27" value="" style="rounded=0;whiteSpace=wrap;html=1;fontStyle=1" vertex="1" parent="1">
          <mxGeometry x="80" y="300" width="220" height="60" as="geometry" />
        </mxCell>
        <mxCell id="A_Fp0_x9dH_AFZVL10BB-28" value="UserName" style="rounded=0;whiteSpace=wrap;html=1;" vertex="1" parent="1">
          <mxGeometry x="300" y="300" width="200" height="60" as="geometry" />
        </mxCell>
        <mxCell id="A_Fp0_x9dH_AFZVL10BB-29" value="Имя пользователя" style="rounded=0;whiteSpace=wrap;html=1;" vertex="1" parent="1">
          <mxGeometry x="500" y="300" width="250" height="60" as="geometry" />
        </mxCell>
        <mxCell id="A_Fp0_x9dH_AFZVL10BB-33" value="" style="rounded=0;whiteSpace=wrap;html=1;fontStyle=1" vertex="1" parent="1">
          <mxGeometry x="80" y="480" width="220" height="60" as="geometry" />
        </mxCell>
        <mxCell id="A_Fp0_x9dH_AFZVL10BB-34" value="email" style="rounded=0;whiteSpace=wrap;html=1;" vertex="1" parent="1">
          <mxGeometry x="300" y="480" width="200" height="60" as="geometry" />
        </mxCell>
        <mxCell id="A_Fp0_x9dH_AFZVL10BB-35" value="Почта" style="rounded=0;whiteSpace=wrap;html=1;" vertex="1" parent="1">
          <mxGeometry x="500" y="480" width="250" height="60" as="geometry" />
        </mxCell>
        <mxCell id="A_Fp0_x9dH_AFZVL10BB-36" value="" style="rounded=0;whiteSpace=wrap;html=1;fontStyle=1" vertex="1" parent="1">
          <mxGeometry x="80" y="360" width="220" height="60" as="geometry" />
        </mxCell>
        <mxCell id="A_Fp0_x9dH_AFZVL10BB-37" value="Gender" style="rounded=0;whiteSpace=wrap;html=1;" vertex="1" parent="1">
          <mxGeometry x="300" y="360" width="200" height="60" as="geometry" />
        </mxCell>
        <mxCell id="A_Fp0_x9dH_AFZVL10BB-38" value="Пол" style="rounded=0;whiteSpace=wrap;html=1;" vertex="1" parent="1">
          <mxGeometry x="500" y="360" width="250" height="60" as="geometry" />
        </mxCell>
        <mxCell id="A_Fp0_x9dH_AFZVL10BB-39" value="" style="rounded=0;whiteSpace=wrap;html=1;fontStyle=1" vertex="1" parent="1">
          <mxGeometry x="80" y="420" width="220" height="60" as="geometry" />
        </mxCell>
        <mxCell id="A_Fp0_x9dH_AFZVL10BB-40" value="Age" style="rounded=0;whiteSpace=wrap;html=1;" vertex="1" parent="1">
          <mxGeometry x="300" y="420" width="200" height="60" as="geometry" />
        </mxCell>
        <mxCell id="A_Fp0_x9dH_AFZVL10BB-41" value="Возраст" style="rounded=0;whiteSpace=wrap;html=1;" vertex="1" parent="1">
          <mxGeometry x="500" y="420" width="250" height="60" as="geometry" />
        </mxCell>
        <mxCell id="A_Fp0_x9dH_AFZVL10BB-42" value="&lt;font style=&quot;font-size: 19px;&quot;&gt;&lt;b&gt;Объект user&lt;/b&gt;&lt;/font&gt;" style="text;html=1;align=center;verticalAlign=middle;resizable=0;points=[];autosize=1;strokeColor=none;fillColor=none;" vertex="1" parent="1">
          <mxGeometry x="120" y="80" width="140" height="40" as="geometry" />
        </mxCell>
        <mxCell id="A_Fp0_x9dH_AFZVL10BB-47" value="Favorites" style="rounded=0;whiteSpace=wrap;html=1;" vertex="1" parent="1">
          <mxGeometry x="80" y="1310" width="220" height="60" as="geometry" />
        </mxCell>
        <mxCell id="A_Fp0_x9dH_AFZVL10BB-48" value="------" style="rounded=0;whiteSpace=wrap;html=1;" vertex="1" parent="1">
          <mxGeometry x="300" y="1310" width="200" height="60" as="geometry" />
        </mxCell>
        <mxCell id="A_Fp0_x9dH_AFZVL10BB-49" value="Список связывающий пользователя и&amp;nbsp;&lt;div&gt;его добавленные видео&amp;nbsp;&lt;/div&gt;" style="rounded=0;whiteSpace=wrap;html=1;" vertex="1" parent="1">
          <mxGeometry x="500" y="1310" width="250" height="60" as="geometry" />
        </mxCell>
        <mxCell id="A_Fp0_x9dH_AFZVL10BB-50" value="&lt;b&gt;&lt;font style=&quot;font-size: 13px;&quot;&gt;Родительская сущность&lt;/font&gt;&lt;/b&gt;" style="rounded=0;whiteSpace=wrap;html=1;" vertex="1" parent="1">
          <mxGeometry x="80" y="640" width="220" height="60" as="geometry" />
        </mxCell>
        <mxCell id="A_Fp0_x9dH_AFZVL10BB-51" value="&lt;b&gt;&lt;font style=&quot;font-size: 13px;&quot;&gt;Атрибут&lt;/font&gt;&lt;/b&gt;" style="rounded=0;whiteSpace=wrap;html=1;" vertex="1" parent="1">
          <mxGeometry x="300" y="640" width="200" height="60" as="geometry" />
        </mxCell>
        <mxCell id="A_Fp0_x9dH_AFZVL10BB-52" value="&lt;b&gt;&lt;font style=&quot;font-size: 13px;&quot;&gt;Описание&lt;/font&gt;&lt;/b&gt;" style="rounded=0;whiteSpace=wrap;html=1;" vertex="1" parent="1">
          <mxGeometry x="500" y="640" width="250" height="60" as="geometry" />
        </mxCell>
        <mxCell id="A_Fp0_x9dH_AFZVL10BB-53" value="&lt;font style=&quot;font-size: 19px;&quot;&gt;&lt;b&gt;Объект video&lt;/b&gt;&lt;/font&gt;" style="text;html=1;align=center;verticalAlign=middle;resizable=0;points=[];autosize=1;strokeColor=none;fillColor=none;" vertex="1" parent="1">
          <mxGeometry x="105" y="600" width="150" height="40" as="geometry" />
        </mxCell>
        <mxCell id="A_Fp0_x9dH_AFZVL10BB-54" value="Video" style="rounded=0;whiteSpace=wrap;html=1;" vertex="1" parent="1">
          <mxGeometry x="80" y="700" width="220" height="60" as="geometry" />
        </mxCell>
        <mxCell id="A_Fp0_x9dH_AFZVL10BB-55" value="-----" style="rounded=0;whiteSpace=wrap;html=1;" vertex="1" parent="1">
          <mxGeometry x="300" y="700" width="220" height="60" as="geometry" />
        </mxCell>
        <mxCell id="A_Fp0_x9dH_AFZVL10BB-56" value="Объект видео, добавляемого пользователем в избранное" style="rounded=0;whiteSpace=wrap;html=1;" vertex="1" parent="1">
          <mxGeometry x="500" y="700" width="250" height="60" as="geometry" />
        </mxCell>
        <mxCell id="A_Fp0_x9dH_AFZVL10BB-57" value="" style="rounded=0;whiteSpace=wrap;html=1;" vertex="1" parent="1">
          <mxGeometry x="80" y="880" width="220" height="60" as="geometry" />
        </mxCell>
        <mxCell id="A_Fp0_x9dH_AFZVL10BB-58" value="Duration" style="rounded=0;whiteSpace=wrap;html=1;" vertex="1" parent="1">
          <mxGeometry x="300" y="880" width="220" height="60" as="geometry" />
        </mxCell>
        <mxCell id="A_Fp0_x9dH_AFZVL10BB-59" value="Длительность видео" style="rounded=0;whiteSpace=wrap;html=1;" vertex="1" parent="1">
          <mxGeometry x="500" y="880" width="250" height="60" as="geometry" />
        </mxCell>
        <mxCell id="A_Fp0_x9dH_AFZVL10BB-60" value="" style="rounded=0;whiteSpace=wrap;html=1;" vertex="1" parent="1">
          <mxGeometry x="80" y="760" width="220" height="60" as="geometry" />
        </mxCell>
        <mxCell id="A_Fp0_x9dH_AFZVL10BB-61" value="VideoID" style="rounded=0;whiteSpace=wrap;html=1;" vertex="1" parent="1">
          <mxGeometry x="300" y="760" width="220" height="60" as="geometry" />
        </mxCell>
        <mxCell id="A_Fp0_x9dH_AFZVL10BB-62" value="Уникальный идентификатор видео" style="rounded=0;whiteSpace=wrap;html=1;" vertex="1" parent="1">
          <mxGeometry x="500" y="760" width="250" height="60" as="geometry" />
        </mxCell>
        <mxCell id="A_Fp0_x9dH_AFZVL10BB-63" value="" style="rounded=0;whiteSpace=wrap;html=1;" vertex="1" parent="1">
          <mxGeometry x="80" y="820" width="220" height="60" as="geometry" />
        </mxCell>
        <mxCell id="A_Fp0_x9dH_AFZVL10BB-64" value="Title" style="rounded=0;whiteSpace=wrap;html=1;" vertex="1" parent="1">
          <mxGeometry x="300" y="820" width="200" height="60" as="geometry" />
        </mxCell>
        <mxCell id="A_Fp0_x9dH_AFZVL10BB-65" value="Название видео" style="rounded=0;whiteSpace=wrap;html=1;" vertex="1" parent="1">
          <mxGeometry x="500" y="820" width="250" height="60" as="geometry" />
        </mxCell>
        <mxCell id="A_Fp0_x9dH_AFZVL10BB-67" value="" style="rounded=0;whiteSpace=wrap;html=1;" vertex="1" parent="1">
          <mxGeometry x="80" y="940" width="220" height="60" as="geometry" />
        </mxCell>
        <mxCell id="A_Fp0_x9dH_AFZVL10BB-68" value="Data" style="rounded=0;whiteSpace=wrap;html=1;" vertex="1" parent="1">
          <mxGeometry x="300" y="940" width="200" height="60" as="geometry" />
        </mxCell>
        <mxCell id="A_Fp0_x9dH_AFZVL10BB-69" value="Содержимое видео в бинарном формате" style="rounded=0;whiteSpace=wrap;html=1;" vertex="1" parent="1">
          <mxGeometry x="500" y="940" width="250" height="60" as="geometry" />
        </mxCell>
        <mxCell id="A_Fp0_x9dH_AFZVL10BB-70" value="" style="rounded=0;whiteSpace=wrap;html=1;" vertex="1" parent="1">
          <mxGeometry x="80" y="1000" width="220" height="60" as="geometry" />
        </mxCell>
        <mxCell id="A_Fp0_x9dH_AFZVL10BB-71" value="PreView" style="rounded=0;whiteSpace=wrap;html=1;" vertex="1" parent="1">
          <mxGeometry x="300" y="1000" width="200" height="60" as="geometry" />
        </mxCell>
        <mxCell id="A_Fp0_x9dH_AFZVL10BB-72" value="Превью-изображение видео в бинарном формате" style="rounded=0;whiteSpace=wrap;html=1;" vertex="1" parent="1">
          <mxGeometry x="500" y="1000" width="250" height="60" as="geometry" />
        </mxCell>
        <mxCell id="A_Fp0_x9dH_AFZVL10BB-73" value="" style="rounded=0;whiteSpace=wrap;html=1;" vertex="1" parent="1">
          <mxGeometry x="80" y="1060" width="220" height="60" as="geometry" />
        </mxCell>
        <mxCell id="A_Fp0_x9dH_AFZVL10BB-74" value="UploadDate" style="rounded=0;whiteSpace=wrap;html=1;" vertex="1" parent="1">
          <mxGeometry x="300" y="1060" width="200" height="60" as="geometry" />
        </mxCell>
        <mxCell id="A_Fp0_x9dH_AFZVL10BB-75" value="Дата загрузки видео" style="rounded=0;whiteSpace=wrap;html=1;" vertex="1" parent="1">
          <mxGeometry x="500" y="1060" width="250" height="60" as="geometry" />
        </mxCell>
        <mxCell id="Dvps1DWXcSxAue-cvgUl-1" value="&lt;font style=&quot;font-size: 20px;&quot;&gt;&lt;b&gt;Объект favorites&lt;/b&gt;&lt;/font&gt;" style="text;html=1;align=center;verticalAlign=middle;resizable=0;points=[];autosize=1;strokeColor=none;fillColor=none;" vertex="1" parent="1">
          <mxGeometry x="95" y="1210" width="190" height="40" as="geometry" />
        </mxCell>
        <mxCell id="Dvps1DWXcSxAue-cvgUl-2" value="&lt;b&gt;&lt;font style=&quot;font-size: 13px;&quot;&gt;Родительская сущность&lt;/font&gt;&lt;/b&gt;" style="rounded=0;whiteSpace=wrap;html=1;" vertex="1" parent="1">
          <mxGeometry x="80" y="1250" width="220" height="60" as="geometry" />
        </mxCell>
        <mxCell id="Dvps1DWXcSxAue-cvgUl-3" value="&lt;b&gt;&lt;font style=&quot;font-size: 13px;&quot;&gt;Атрибут&lt;/font&gt;&lt;/b&gt;" style="rounded=0;whiteSpace=wrap;html=1;" vertex="1" parent="1">
          <mxGeometry x="300" y="1250" width="200" height="60" as="geometry" />
        </mxCell>
        <mxCell id="Dvps1DWXcSxAue-cvgUl-4" value="&lt;b&gt;&lt;font style=&quot;font-size: 13px;&quot;&gt;Описание&lt;/font&gt;&lt;/b&gt;" style="rounded=0;whiteSpace=wrap;html=1;" vertex="1" parent="1">
          <mxGeometry x="500" y="1250" width="250" height="60" as="geometry" />
        </mxCell>
        <mxCell id="Dvps1DWXcSxAue-cvgUl-7" value="" style="rounded=0;whiteSpace=wrap;html=1;" vertex="1" parent="1">
          <mxGeometry x="80" y="1370" width="220" height="60" as="geometry" />
        </mxCell>
        <mxCell id="Dvps1DWXcSxAue-cvgUl-8" value="UserID" style="rounded=0;whiteSpace=wrap;html=1;" vertex="1" parent="1">
          <mxGeometry x="300" y="1370" width="200" height="60" as="geometry" />
        </mxCell>
        <mxCell id="Dvps1DWXcSxAue-cvgUl-9" value="Ссылка на объект пользователя" style="rounded=0;whiteSpace=wrap;html=1;" vertex="1" parent="1">
          <mxGeometry x="500" y="1370" width="250" height="60" as="geometry" />
        </mxCell>
        <mxCell id="Dvps1DWXcSxAue-cvgUl-10" value="" style="rounded=0;whiteSpace=wrap;html=1;" vertex="1" parent="1">
          <mxGeometry x="80" y="1430" width="220" height="60" as="geometry" />
        </mxCell>
        <mxCell id="Dvps1DWXcSxAue-cvgUl-11" value="&lt;table&gt;&lt;tbody&gt;&lt;tr&gt;&lt;td&gt;&lt;/td&gt;&lt;/tr&gt;&lt;/tbody&gt;&lt;/table&gt;&lt;table&gt;&lt;tbody&gt;&lt;tr&gt;&lt;td&gt;VideoID&lt;/td&gt;&lt;/tr&gt;&lt;/tbody&gt;&lt;/table&gt;" style="rounded=0;whiteSpace=wrap;html=1;" vertex="1" parent="1">
          <mxGeometry x="300" y="1430" width="200" height="60" as="geometry" />
        </mxCell>
        <mxCell id="Dvps1DWXcSxAue-cvgUl-12" value="Ссылка на объект видео" style="rounded=0;whiteSpace=wrap;html=1;" vertex="1" parent="1">
          <mxGeometry x="500" y="1430" width="250" height="60" as="geometry" />
        </mxCell>
        <mxCell id="Dvps1DWXcSxAue-cvgUl-13" value="" style="rounded=0;whiteSpace=wrap;html=1;" vertex="1" parent="1">
          <mxGeometry x="80" y="1490" width="220" height="60" as="geometry" />
        </mxCell>
        <mxCell id="Dvps1DWXcSxAue-cvgUl-14" value="UploadDate" style="rounded=0;whiteSpace=wrap;html=1;" vertex="1" parent="1">
          <mxGeometry x="300" y="1490" width="200" height="60" as="geometry" />
        </mxCell>
        <mxCell id="Dvps1DWXcSxAue-cvgUl-15" value="Дата и время добавления видео в избранное" style="rounded=0;whiteSpace=wrap;html=1;" vertex="1" parent="1">
          <mxGeometry x="500" y="1490" width="250" height="60" as="geometry" />
        </mxCell>
      </root>
    </mxGraphModel>
  </diagram>
</mxfile>
